<svg xmlns="http://www.w3.org/2000/svg" xmlns:xlink="http://www.w3.org/1999/xlink" id="Layer_1" x="0" y="0" version="1.1" viewBox="0 0 50.4 34" xml:space="preserve" style="enable-background:new 0 0 50.4 34"><style type="text/css">.st0{fill:url(#SVGID_1_)}</style><linearGradient id="SVGID_1_" x1="-72.1" x2="-72.1" y1="60.436" y2="108.519" gradientTransform="matrix(0.7071 0 0 -0.7071 76.1809 76.7341)" gradientUnits="userSpaceOnUse"><stop offset="0" style="stop-color:#ffe01e"/><stop offset=".137" style="stop-color:#cadd32"/><stop offset=".31" style="stop-color:#8fd848"/><stop offset=".477" style="stop-color:#5ed55b"/><stop offset=".634" style="stop-color:#37d269"/><stop offset=".778" style="stop-color:#1cd073"/><stop offset=".904" style="stop-color:#0bcf7a"/><stop offset="1" style="stop-color:#05ce7c"/></linearGradient><path d="M1,15.4l22.6-15c0.9-0.6,2.3-0.6,3.2,0l22.6,15c1.4,0.9,1.4,2.4,0,3.2l-3,2C41.9,13.6,34.1,9,25.2,9	C16.3,9,8.5,13.7,4,20.6l-3-2C-0.3,17.7-0.3,16.3,1,15.4z M25.2,15.2c-6.7,0-12.6,3.6-16,8.8l5.2,3.5c2.2-3.6,6.2-6.1,10.7-6.1	c4.5,0,8.5,2.4,10.7,6.1l5.2-3.5C37.8,18.8,31.9,15.2,25.2,15.2z M25.2,27.7c-2.4,0-4.4,1.3-5.5,3.2l3.5,2.3c0.6,0.5,1.2,0.7,2,0.7	s1.5-0.3,2-0.7l3.5-2.3C29.7,29.1,27.6,27.7,25.2,27.7z" class="st0"/></svg>