<svg xmlns="http://www.w3.org/2000/svg" xmlns:svg="http://www.w3.org/2000/svg" id="Outlines_-_Full_Color" width="154.904" height="162.319" data-name="Outlines - Full Color" version="1.1" viewBox="0 0 154.904 162.319"><defs id="defs7"><style id="style2">.cls-1{fill:none}.cls-2{clip-path:url(#clip-path)}.cls-3{fill:#ff7a59}</style><clipPath id="clip-path"><rect id="rect4" width="156.42" height="163.35" x="42.87" y="46.9" class="cls-1"/></clipPath></defs><title id="title9">sprocket-web-color_sprocket-black-web</title><g id="Sprocket" transform="translate(-43.652046,-47.611505)"><g id="g15" class="cls-2" clip-path="url(#clip-path)"><g id="g13" class="cls-2" clip-path="url(#clip-path)"><path id="path11" d="M 162.79,101.25 V 82 a 14.84,14.84 0 0 0 8.56,-13.38 V 68.17 A 14.87,14.87 0 0 0 156.52,53.34 h -0.45 a 14.87,14.87 0 0 0 -14.83,14.83 v 0.45 A 14.84,14.84 0 0 0 149.8,82 v 19.29 a 42.06,42.06 0 0 0 -20,8.8 L 76.86,68.86 A 16.89,16.89 0 1 0 68.95,79.15 L 121,119.67 a 42.18,42.18 0 0 0 0.65,47.56 l -15.84,15.84 a 13.6,13.6 0 0 0 -3.93,-0.64 13.75,13.75 0 1 0 13.75,13.75 13.56,13.56 0 0 0 -0.64,-3.93 l 15.67,-15.67 a 42.25,42.25 0 1 0 32.1,-75.33 m -6.49,63.42 A 21.68,21.68 0 1 1 178,143 21.68,21.68 0 0 1 156.32,164.68" class="cls-3"/></g></g></g><metadata id="metadata21"/></svg>